<svg width="45" height="52" viewBox="0 0 45 52" fill="none" xmlns="http://www.w3.org/2000/svg">
<path d="M18.8754 50.2762L16.6113 29.366L8.99025 25.5012L8.33346 28.5731L13.4824 36.5396L9.58508 39.0804L3.29899 29.4795L5.57005 19.3134L18.5654 10.9218L11.8217 4.84972L14.9129 1.41656L26.1902 11.5152L18.0551 16.7899L20.9795 19.09L39.2684 2.47668L42.2356 5.59233L23.4796 26.6695L23.5357 50.0319L18.8754 50.2762ZM5.39298 15.9347C4.1114 16.0019 2.99038 15.603 2.02992 14.7382C1.06945 13.8734 0.555634 12.8002 0.48847 11.5187C0.421305 10.2371 0.820127 9.11607 1.68493 8.1556C2.54974 7.19513 3.62293 6.68132 4.90451 6.61415C6.18609 6.54699 7.30711 6.94581 8.26757 7.81062C9.22804 8.67543 9.74186 9.74862 9.80902 11.0302C9.87618 12.3118 9.47736 13.4328 8.61256 14.3933C7.74775 15.3537 6.67456 15.8675 5.39298 15.9347Z" fill="white"/>
</svg>
